<svg width="204" height="50" viewBox="0 0 204 50" fill="none" xmlns="http://www.w3.org/2000/svg">
<path d="M12.6883 49.7C11.2549 49.7 10.1383 49.2333 9.33828 48.3C8.57162 47.4 8.03828 46.1833 7.73828 44.65C7.43828 43.15 7.28828 41.5 7.28828 39.7C7.28828 38.5333 7.32161 37.2667 7.38828 35.9C7.48828 34.5333 7.62162 33.1 7.78828 31.6C7.08828 31.8 6.40495 31.9833 5.73828 32.15C5.07161 32.2833 4.40495 32.3833 3.73828 32.45C3.30495 32.45 2.82161 32.4 2.28828 32.3C1.75495 32.1667 1.30495 31.9833 0.938281 31.75C0.538281 31.5167 0.338281 31.25 0.338281 30.95C0.338281 30.6167 0.571615 30.3167 1.03828 30.05C1.37161 29.85 1.87161 29.65 2.53828 29.45C3.23828 29.25 3.87161 29.0833 4.43828 28.95C5.00495 28.8167 5.28828 28.75 5.28828 28.75C5.32161 28.75 5.35495 28.75 5.38828 28.75C5.42161 28.7167 5.43828 28.7 5.43828 28.7C5.47161 28.7 5.48828 28.7167 5.48828 28.75C5.52161 28.75 5.53828 28.75 5.53828 28.75C5.53828 28.8833 5.35495 29.1167 4.98828 29.45C4.62161 29.7833 4.43828 30.0333 4.43828 30.2C4.43828 30.2667 4.48828 30.3 4.58828 30.3C4.68828 30.3 4.88828 30.25 5.18828 30.15C5.65495 29.9833 6.12161 29.8167 6.58828 29.65C7.08828 29.45 7.58828 29.25 8.08828 29.05C8.38828 26.65 8.72161 24.25 9.08828 21.85C9.48828 19.4167 9.90495 17.1167 10.3383 14.95C10.7716 12.75 11.1716 10.85 11.5383 9.25C11.3049 9.48333 11.0716 9.85 10.8383 10.35C10.6383 10.85 10.4383 11.3167 10.2383 11.75C10.0383 12.1833 9.83828 12.4 9.63828 12.4C9.57161 12.4 9.53828 12.3333 9.53828 12.2C9.53828 12.0667 9.63828 11.7167 9.83828 11.15C10.0383 10.5833 10.3049 9.93333 10.6383 9.2C10.9716 8.46667 11.3216 7.75 11.6883 7.05C12.0883 6.31666 12.4716 5.71666 12.8383 5.25C13.2383 4.78333 13.5883 4.55 13.8883 4.55C14.2216 4.55 14.6049 4.68333 15.0383 4.95C15.4716 5.21667 15.8549 5.51667 16.1883 5.85C16.5549 6.15 16.7383 6.4 16.7383 6.6C16.7383 6.7 16.7216 6.76667 16.6883 6.8C15.4216 8.86666 14.2383 11.6333 13.1383 15.1C12.0383 18.5333 11.2049 22.6833 10.6383 27.55C10.6049 27.65 10.5883 27.7833 10.5883 27.95C12.4549 27.0833 14.3549 26.1167 16.2883 25.05C18.2549 23.95 20.1216 22.8 21.8883 21.6C23.6883 20.4 25.2883 19.1833 26.6883 17.95C28.1216 16.6833 29.2383 15.4333 30.0383 14.2C30.8716 12.9667 31.2883 11.7833 31.2883 10.65C31.2883 9.41667 30.7549 8.36667 29.6883 7.5C28.6216 6.63333 27.205 5.93333 25.4383 5.4C23.6716 4.83333 21.7383 4.41666 19.6383 4.15C17.5383 3.88333 15.4549 3.75 13.3883 3.75C11.6216 3.75 9.95495 3.81667 8.38828 3.95C6.85495 4.05 5.55495 4.1 4.48828 4.1C3.75495 4.1 3.38828 3.98333 3.38828 3.75C3.38828 3.61667 3.57161 3.43333 3.93828 3.2C5.53828 2.26666 7.03828 1.63333 8.43828 1.3C9.83828 0.966665 11.1549 0.799998 12.3883 0.799998C13.6216 0.799998 15.1216 0.933332 16.8883 1.2C18.6549 1.43333 20.4716 1.8 22.3383 2.3C24.2383 2.8 26.0049 3.43333 27.6383 4.2C29.2716 4.93333 30.6049 5.81667 31.6383 6.85C32.6716 7.85 33.1883 8.98333 33.1883 10.25C33.1883 11.75 32.655 13.4333 31.5883 15.3C30.5216 17.1333 28.9216 19.05 26.7883 21.05C25.8883 21.9167 24.5716 22.95 22.8383 24.15C21.1383 25.3167 19.2049 26.5 17.0383 27.7C14.8716 28.8667 12.6383 29.8833 10.3383 30.75C10.3049 31.5167 10.2716 32.3 10.2383 33.1C10.2383 33.9 10.2383 34.6833 10.2383 35.45C10.2383 38.6167 10.4049 41.1333 10.7383 43C11.0716 44.9 11.5383 46.25 12.1383 47.05C12.7383 47.85 13.4216 48.25 14.1883 48.25C14.7549 48.25 15.2216 48.1333 15.5883 47.9C15.9883 47.7 16.2883 47.6 16.4883 47.6C16.6549 47.6 16.7383 47.6833 16.7383 47.85C16.7383 47.9167 16.6049 48.1 16.3383 48.4C16.0716 48.7333 15.6383 49.0333 15.0383 49.3C14.4383 49.5667 13.6549 49.7 12.6883 49.7ZM34.9738 15.25C34.7738 15.25 34.5572 15.2167 34.3238 15.15C34.1238 15.05 33.9238 14.95 33.7238 14.85C33.5905 14.75 33.5238 14.6167 33.5238 14.45C33.5238 14.15 33.7072 13.7833 34.0738 13.35C34.4405 12.8833 34.9072 12.4833 35.4738 12.15C36.0405 11.8167 36.5905 11.65 37.1238 11.65C37.4238 11.65 37.5738 11.7333 37.5738 11.9C37.5738 12.0333 37.4238 12.2 37.1238 12.4C36.7572 12.6667 36.4905 13.0333 36.3238 13.5C36.1572 13.9667 35.9905 14.3833 35.8238 14.75C35.6572 15.0833 35.3738 15.25 34.9738 15.25ZM33.0238 39.65C32.0905 39.65 31.4572 39.2333 31.1238 38.4C30.7905 37.5333 30.6238 36.4 30.6238 35C30.6238 33.7 30.6905 32.3333 30.8238 30.9C30.9905 29.4333 31.1905 28.0667 31.4238 26.8C31.6905 25.5 31.9905 24.45 32.3238 23.65C32.6572 22.8167 32.9905 22.4 33.3238 22.4C33.6905 22.4 34.0072 22.5833 34.2738 22.95C34.5738 23.2833 34.8072 23.6667 34.9738 24.1C35.1738 24.5333 35.2738 24.8833 35.2738 25.15C35.0738 25.6167 34.8238 26.3667 34.5238 27.4C34.2572 28.4 33.9905 29.5 33.7238 30.7C33.4905 31.8667 33.2738 32.95 33.0738 33.95C32.9072 34.9167 32.8238 35.6 32.8238 36C32.8238 37.2 33.1405 37.8 33.7738 37.8C34.0405 37.8 34.3072 37.7333 34.5738 37.6C35.0072 37.4 35.4572 36.9833 35.9238 36.35C36.4238 35.7167 36.9072 35 37.3738 34.2C37.8405 33.3667 38.2738 32.5667 38.6738 31.8C39.0738 31 39.4072 30.35 39.6738 29.85C39.9405 29.3167 40.1072 29.05 40.1738 29.05C40.3072 29.05 40.3738 29.1833 40.3738 29.45C40.3738 29.75 40.2572 30.2333 40.0238 30.9C39.7905 31.5333 39.4905 32.1833 39.1238 32.85C38.8572 33.35 38.5238 33.9833 38.1238 34.75C37.7238 35.5167 37.2738 36.2833 36.7738 37.05C36.2738 37.7833 35.7072 38.4 35.0738 38.9C34.4405 39.4 33.7572 39.65 33.0238 39.65ZM42.1199 43.1C41.7866 43.1 41.3199 42.8333 40.7199 42.3C40.1533 41.8 39.7533 41.1333 39.5199 40.3C39.3866 39.7333 39.2866 38.9667 39.2199 38C39.1533 37.0333 39.1199 35.95 39.1199 34.75C39.1199 32.75 39.1533 30.6 39.2199 28.3C39.3199 26 39.3699 23.9333 39.3699 22.1C39.3699 21.5 39.3533 20.9333 39.3199 20.4C39.3199 19.8667 39.3033 19.4 39.2699 19C39.2033 18.9333 39.0033 18.8833 38.6699 18.85C38.3699 18.7833 38.0699 18.7333 37.7699 18.7C37.5033 18.6333 37.3699 18.6 37.3699 18.6C37.3699 18.5333 37.6199 18.3833 38.1199 18.15C38.6533 17.8833 39.4033 17.75 40.3699 17.75C41.3699 17.75 42.0199 17.9667 42.3199 18.4C42.6533 18.8 42.8199 19.15 42.8199 19.45C42.8199 19.5167 42.8199 19.6 42.8199 19.7C42.8199 19.8 42.8033 19.8833 42.7699 19.95C42.4033 21.7167 42.0533 23.8 41.7199 26.2C41.3866 28.5667 41.2199 31.0667 41.2199 33.7C41.2199 34.3333 41.2199 34.9 41.2199 35.4C41.2533 35.8667 41.2699 36.2833 41.2699 36.65V37.1C41.4699 35.2333 41.8199 33.4667 42.3199 31.8C42.8199 30.1 43.3199 28.25 43.8199 26.25C44.2199 24.5167 44.5533 23.1833 44.8199 22.25C45.1199 21.2833 45.4199 20.6167 45.7199 20.25C46.0533 19.85 46.4366 19.65 46.8699 19.65C47.4699 19.65 47.8866 19.9 48.1199 20.4C48.3533 20.9 48.5033 21.5833 48.5699 22.45C48.6366 23.3167 48.7033 24.3167 48.7699 25.45C48.8366 26.55 49.0033 27.7333 49.2699 29C49.6699 30.9 50.1366 32.2833 50.6699 33.15C51.2033 34.0167 51.6533 34.45 52.0199 34.45C52.4533 34.45 52.8866 34.1833 53.3199 33.65C53.7533 33.0833 54.1699 32.4333 54.5699 31.7C54.9699 30.9667 55.3199 30.3333 55.6199 29.8C55.9533 29.2333 56.2199 28.95 56.4199 28.95C56.5199 28.95 56.5699 29.0333 56.5699 29.2C56.5699 29.3333 56.5199 29.55 56.4199 29.85C55.5866 31.7167 54.8866 33.1667 54.3199 34.2C53.7533 35.2 52.9699 35.7 51.9699 35.7C51.2033 35.7 50.4366 35.3667 49.6699 34.7C49.2699 34.3667 48.8699 33.8333 48.4699 33.1C48.1033 32.3333 47.7533 31.5 47.4199 30.6C47.0866 29.7 46.7699 28.85 46.4699 28.05C46.2033 27.2167 45.9699 26.5333 45.7699 26C45.5699 25.4667 45.4366 25.2 45.3699 25.2C45.3033 25.2 45.1866 25.2667 45.0199 25.4C44.8866 25.5333 44.7866 25.7667 44.7199 26.1C44.1533 28.1667 43.6866 30.2167 43.3199 32.25C42.9866 34.25 42.7366 36.0667 42.5699 37.7C42.4033 39.3 42.3199 40.5333 42.3199 41.4C42.3199 41.8333 42.3366 42.1333 42.3699 42.3C42.4366 42.5 42.4699 42.65 42.4699 42.75C42.4699 42.9833 42.3533 43.1 42.1199 43.1ZM58.1648 42.1C57.6315 42.1 57.1815 41.7667 56.8148 41.1C56.4815 40.4667 56.2148 39.65 56.0148 38.65C55.8482 37.6167 55.7315 36.5167 55.6648 35.35C55.5982 34.15 55.5648 33 55.5648 31.9V31.85C55.1982 31.6833 54.8482 31.5333 54.5148 31.4C54.1815 31.2333 53.8648 31.1 53.5648 31C53.3648 30.9 53.2648 30.7667 53.2648 30.6C53.2648 30.3 53.4482 29.9667 53.8148 29.6C54.2148 29.2333 54.6315 29.05 55.0648 29.05C55.1648 29.05 55.3148 29.0833 55.5148 29.15C55.5148 29.1833 55.5482 29.2 55.6148 29.2C55.6815 26.5 55.8648 23.8 56.1648 21.1C56.4648 18.3667 56.7982 15.8333 57.1648 13.5C57.5648 11.1333 57.9315 9.15 58.2648 7.55C58.6315 5.91667 58.9148 4.86667 59.1148 4.4C59.3482 3.83333 59.5315 3.35 59.6648 2.95C59.8315 2.55 60.0815 2.35 60.4148 2.35C60.9482 2.35 61.4648 2.56667 61.9648 3C62.4982 3.43333 62.7648 3.83333 62.7648 4.2V4.3C62.9648 4.03333 63.2482 3.9 63.6148 3.9C64.1482 3.9 64.5648 4.16666 64.8648 4.7C65.1982 5.23333 65.4315 5.85 65.5648 6.55C65.7315 7.21666 65.8148 7.76666 65.8148 8.2C65.8148 9.5 65.5482 10.9333 65.0148 12.5C64.4815 14.0667 63.7982 15.6667 62.9648 17.3C62.1315 18.9 61.2482 20.45 60.3148 21.95C59.3815 23.4167 58.5148 24.7167 57.7148 25.85C57.6482 26.55 57.5815 27.25 57.5148 27.95C57.4482 28.65 57.3815 29.35 57.3148 30.05L57.8648 30.35C59.0982 29.5167 60.3648 28.55 61.6648 27.45C62.9648 26.35 64.1982 25.2333 65.3648 24.1C66.5648 22.9333 67.5815 21.8333 68.4148 20.8C68.4815 20.7333 68.5482 20.7 68.6148 20.7C68.7148 20.7 68.7648 20.7667 68.7648 20.9C68.7648 20.9667 68.7482 21.0333 68.7148 21.1C68.1148 22.1667 67.3148 23.3333 66.3148 24.6C65.3148 25.8333 64.2315 27.0667 63.0648 28.3C61.9315 29.5 60.7982 30.5667 59.6648 31.5C61.3315 32.6333 62.9315 33.8667 64.4648 35.2C66.0315 36.5333 67.4815 37.8667 68.8148 39.2C69.0148 39.4 69.1148 39.6 69.1148 39.8C69.1148 40.0333 69.0482 40.15 68.9148 40.15C68.8482 40.15 68.8148 40.1333 68.8148 40.1C68.1815 39.6333 67.2815 39 66.1148 38.2C64.9482 37.3667 63.6982 36.5333 62.3648 35.7C61.9648 35.4333 61.3315 35.0333 60.4648 34.5C59.5982 33.9667 58.6648 33.4333 57.6648 32.9H57.5148C57.4815 32.9 57.4315 32.9167 57.3648 32.95C57.3315 32.95 57.2815 32.9333 57.2148 32.9V34.05C57.2148 35.7167 57.3148 37.2167 57.5148 38.55C57.7482 39.85 57.9982 41 58.2648 42C58.2648 42.0667 58.2315 42.1 58.1648 42.1ZM57.9648 24.1C58.9648 22.4667 59.9648 20.7333 60.9648 18.9C61.9648 17.0333 62.7982 15.2 63.4648 13.4C64.1315 11.6 64.4648 9.96666 64.4648 8.5C64.4648 7.7 64.3315 6.96666 64.0648 6.3C63.7982 5.63333 63.3648 5.08333 62.7648 4.65C62.7315 4.65 62.6982 4.63333 62.6648 4.6C61.7648 7.26667 60.8815 10.2833 60.0148 13.65C59.1482 17.0167 58.4648 20.5 57.9648 24.1ZM86.4227 46.95C86.0893 46.9167 85.7393 46.7 85.3727 46.3C85.006 45.9333 84.706 45.5167 84.4727 45.05C84.2393 44.5833 84.1227 44.25 84.1227 44.05C84.1227 43.1167 85.0893 41.9167 87.0227 40.45C88.9893 38.9833 91.756 37.55 95.3227 36.15C97.5893 35.2833 99.5893 34.5 101.323 33.8C103.056 33.1 104.589 32.4833 105.923 31.95C106.023 31.65 106.106 31.3667 106.173 31.1C106.239 30.8 106.273 30.5167 106.273 30.25C106.273 29.1167 105.839 28.1 104.973 27.2C104.139 26.2667 103.023 25.4333 101.623 24.7C100.223 23.9667 98.6393 23.3167 96.8727 22.75C95.1393 22.15 93.3727 21.6333 91.5727 21.2C89.7727 20.7667 88.056 20.4 86.4227 20.1C86.356 20.1333 86.256 20.2 86.1227 20.3C85.9893 20.3667 85.8393 20.4333 85.6727 20.5C85.506 22 85.3727 23.5167 85.2727 25.05C85.206 26.55 85.1727 28 85.1727 29.4C85.1727 30.4333 85.1893 31.4333 85.2227 32.4C85.2893 33.3667 85.356 34.2833 85.4227 35.15C85.5893 34.6833 85.7393 34.2 85.8727 33.7C86.006 33.1667 86.0893 32.9 86.1227 32.9C86.1893 32.9 86.2227 33.15 86.2227 33.65C86.2227 34.2167 86.206 35.05 86.1727 36.15C86.1393 37.2167 86.1227 38.1333 86.1227 38.9C86.1227 39.5333 86.1393 39.8833 86.1727 39.95C86.1727 39.9833 86.1227 40 86.0227 40C85.8227 40 85.456 39.9333 84.9227 39.8C84.4227 39.6667 83.956 39.4833 83.5227 39.25C83.0893 39.0167 82.8393 38.7333 82.7727 38.4C82.5727 37.2333 82.4727 35.7333 82.4727 33.9C82.4727 32.0667 82.556 30.05 82.7227 27.85C82.9227 25.6167 83.1393 23.3833 83.3727 21.15C82.9393 21.25 82.556 21.3 82.2227 21.3C82.1893 21.3 81.9393 21.25 81.4727 21.15C81.006 21.0167 80.556 20.8333 80.1227 20.6C79.6893 20.3667 79.4727 20.0833 79.4727 19.75C79.4727 19.55 79.8727 19.2667 80.6727 18.9C81.4727 18.5 82.4893 18.2167 83.7227 18.05C83.956 16.3167 84.1893 14.7 84.4227 13.2C84.656 11.7 84.8727 10.4 85.0727 9.3C84.7727 9.7 84.5227 9.9 84.3227 9.9C84.256 9.9 84.2227 9.83333 84.2227 9.7C84.2227 9.56667 84.2393 9.46667 84.2727 9.4C84.3727 9.13333 84.5393 8.73333 84.7727 8.2C85.0393 7.66667 85.306 7.13333 85.5727 6.6C85.8727 6.03333 86.1727 5.56666 86.4727 5.2C86.7727 4.8 87.0227 4.6 87.2227 4.6C87.7227 4.6 88.206 4.81667 88.6727 5.25C89.1727 5.65 89.4227 6.01667 89.4227 6.35V6.5C88.5893 7.9 87.8893 9.6 87.3227 11.6C86.7893 13.5667 86.356 15.65 86.0227 17.85C86.1893 17.85 86.356 17.8667 86.5227 17.9C86.7227 17.9333 86.9227 17.95 87.1227 17.95H87.7727C88.0393 17.95 88.3393 17.9667 88.6727 18C89.006 18 89.3393 18.0167 89.6727 18.05C90.8393 17.7167 92.0727 17.3167 93.3727 16.85C94.706 16.3833 95.9393 15.8333 97.0727 15.2C98.2393 14.5667 99.1893 13.8667 99.9227 13.1C100.656 12.3333 101.023 11.5 101.023 10.6C101.023 10.0667 100.673 9.5 99.9727 8.9C99.2727 8.3 98.3727 7.7 97.2727 7.1C96.1727 6.5 94.9727 5.95 93.6727 5.45C92.406 4.91667 91.1727 4.46667 89.9727 4.1C88.806 3.7 87.8227 3.41667 87.0227 3.25C84.6893 2.78333 82.7393 2.55 81.1727 2.55C80.8393 2.55 80.5393 2.56667 80.2727 2.6C80.0393 2.6 79.8227 2.61667 79.6227 2.65C79.3893 2.55 79.2727 2.43333 79.2727 2.3C79.2727 2.03333 79.6393 1.75 80.3727 1.45C81.106 1.15 82.0393 0.899999 83.1727 0.699999C84.306 0.499998 85.4393 0.399997 86.5727 0.399997C87.0393 0.399997 87.4893 0.416665 87.9227 0.45C88.356 0.483332 88.756 0.549998 89.1227 0.649997C90.256 0.916664 91.4893 1.28333 92.8227 1.75C94.156 2.21666 95.4893 2.76666 96.8227 3.4C98.156 4.03333 99.3727 4.71666 100.473 5.45C101.606 6.15 102.506 6.9 103.173 7.7C103.839 8.46667 104.173 9.23333 104.173 10C104.173 10.9 103.673 11.7333 102.673 12.5C101.306 13.5333 99.8227 14.6167 98.2227 15.75C96.6227 16.85 94.7893 17.7667 92.7227 18.5C93.9893 18.7667 95.3727 19.15 96.8727 19.65C98.3727 20.1167 99.856 20.7 101.323 21.4C102.823 22.1 104.173 22.9 105.373 23.8C106.606 24.6667 107.589 25.6167 108.323 26.65C109.056 27.6833 109.423 28.7833 109.423 29.95C109.423 30.2167 109.406 30.4 109.373 30.5C110.839 29.9 111.873 29.4667 112.473 29.2C113.073 28.9333 113.406 28.8 113.473 28.8C113.539 28.8 113.573 28.8167 113.573 28.85C113.573 29.25 113.156 29.7167 112.323 30.25C111.489 30.7833 110.406 31.3667 109.073 32C108.606 33.4333 107.723 34.85 106.423 36.25C105.156 37.65 103.639 38.9667 101.873 40.2C100.139 41.4667 98.3227 42.5833 96.4227 43.55C94.5227 44.55 92.6893 45.35 90.9227 45.95C89.1893 46.55 87.6893 46.8833 86.4227 46.95ZM86.0727 44.1C87.7727 43.6667 89.2727 43.2333 90.5727 42.8C91.8727 42.3667 93.0893 41.9 94.2227 41.4C95.356 40.9 96.4727 40.3 97.5727 39.6C98.6727 38.9 99.8727 38.0833 101.173 37.15C101.973 36.5833 102.656 36.0333 103.223 35.5C103.823 34.9333 104.339 34.3833 104.773 33.85C103.239 34.4833 101.656 35.1167 100.023 35.75C98.4227 36.35 96.9393 36.9167 95.5727 37.45C94.706 37.7833 93.7227 38.2667 92.6227 38.9C91.556 39.5333 90.5227 40.1833 89.5227 40.85C88.5227 41.55 87.6893 42.1833 87.0227 42.75C86.3893 43.35 86.0727 43.8 86.0727 44.1ZM118.874 41.85C118.407 41.85 117.974 41.7833 117.574 41.65C116.307 41.2833 115.29 40.5667 114.524 39.5C113.79 38.4333 113.257 37.1333 112.924 35.6C112.624 34.0667 112.474 32.45 112.474 30.75C112.474 29.8167 112.507 28.8833 112.574 27.95C112.64 27.0167 112.74 26.1 112.874 25.2C113.14 23.3 113.524 21.2 114.024 18.9C114.557 16.6 115.157 14.2667 115.824 11.9C116.49 9.53333 117.174 7.3 117.874 5.2C118.14 4.56666 118.374 4.05 118.574 3.65C118.774 3.25 119.09 3.11667 119.524 3.25C119.857 3.35 120.19 3.51666 120.524 3.75C120.89 3.95 121.174 4.18333 121.374 4.45C122.274 5.48333 122.724 6.93333 122.724 8.8C122.724 10.5 122.39 12.4167 121.724 14.55C121.057 16.65 120.174 18.75 119.074 20.85C118.007 22.95 116.807 24.8833 115.474 26.65C115.174 28.5833 115.024 30.4167 115.024 32.15C115.024 33.5167 115.124 34.7833 115.324 35.95C115.557 37.1167 115.907 38.1333 116.374 39C116.774 39.7333 117.207 40.2333 117.674 40.5C118.174 40.7667 118.64 40.9 119.074 40.9C119.54 40.9 119.957 40.8167 120.324 40.65C120.724 40.4833 121.04 40.35 121.274 40.25C121.54 40.0833 121.774 40 121.974 40C122.24 40 122.274 40.1333 122.074 40.4C121.94 40.5667 121.59 40.85 121.024 41.25C120.457 41.65 119.74 41.85 118.874 41.85ZM115.824 24.5C116.89 22.8333 117.857 21.0833 118.724 19.25C119.624 17.3833 120.34 15.5667 120.874 13.8C121.44 12 121.724 10.4 121.724 9C121.724 8.46667 121.674 7.96666 121.574 7.5C121.507 7.03333 121.374 6.61667 121.174 6.25C120.04 9.08333 118.99 12.1 118.024 15.3C117.09 18.4667 116.357 21.5333 115.824 24.5ZM124.395 38.55C123.195 38.55 122.311 38.1667 121.745 37.4C121.178 36.6 120.895 35.6333 120.895 34.5C120.895 33.3 121.178 31.8333 121.745 30.1C122.311 28.3667 122.911 26.7333 123.545 25.2C122.978 25.5667 122.395 25.9 121.795 26.2C121.195 26.5 120.661 26.65 120.195 26.65C119.861 26.65 119.611 26.5667 119.445 26.4C119.311 26.2333 119.245 26.05 119.245 25.85C119.245 25.6833 119.295 25.4333 119.395 25.1C119.495 24.7667 119.661 24.45 119.895 24.15C120.161 23.85 120.478 23.7 120.845 23.7C120.978 23.7 121.045 23.75 121.045 23.85C121.045 23.8833 121.028 23.9167 120.995 23.95C120.995 23.95 120.995 23.9667 120.995 24C120.961 24.0667 120.945 24.1333 120.945 24.2C120.945 24.3333 121.028 24.4 121.195 24.4C121.295 24.4 121.411 24.3833 121.545 24.35C121.711 24.3167 121.878 24.25 122.045 24.15C122.378 23.9833 122.761 23.7833 123.195 23.55C123.628 23.2833 124.111 23.0167 124.645 22.75L125.395 21.25C125.595 20.8833 125.828 20.6333 126.095 20.5C126.361 20.3333 126.611 20.25 126.845 20.25C127.211 20.25 127.528 20.3167 127.795 20.45C128.095 20.55 128.361 20.6833 128.595 20.85C128.961 20.6833 129.345 20.5333 129.745 20.4C130.178 20.2333 130.595 20.1167 130.995 20.05C132.261 19.5833 133.578 19.2167 134.945 18.95C136.311 18.65 137.661 18.5 138.995 18.5C139.728 18.5 140.478 18.6 141.245 18.8C142.011 19 142.395 19.3167 142.395 19.75C142.395 19.8833 142.261 19.95 141.995 19.95C141.461 19.95 140.845 19.8833 140.145 19.75C139.478 19.6167 138.811 19.55 138.145 19.55C137.311 19.55 136.511 19.6 135.745 19.7C134.978 19.7667 134.261 19.8833 133.595 20.05C134.128 20.2833 134.561 20.6833 134.895 21.25C135.261 21.8167 135.445 22.5333 135.445 23.4C135.445 24.3333 135.211 25.45 134.745 26.75C134.311 28.05 133.711 29.3833 132.945 30.75C132.211 32.1167 131.361 33.4 130.395 34.6C129.428 35.7667 128.428 36.7167 127.395 37.45C126.361 38.1833 125.361 38.55 124.395 38.55ZM124.945 37.5C125.645 37.5 126.361 37.1833 127.095 36.55C127.861 35.9167 128.611 35.1167 129.345 34.15C130.078 33.1833 130.728 32.1833 131.295 31.15C131.561 30.6833 131.861 30.05 132.195 29.25C132.561 28.45 132.861 27.6 133.095 26.7C133.361 25.8 133.495 24.9833 133.495 24.25C133.495 23.5833 133.345 23.0333 133.045 22.6C132.778 22.1333 132.261 21.9 131.495 21.9C131.128 21.9 130.661 22 130.095 22.2C129.528 22.4 128.928 22.6333 128.295 22.9C128.161 23.0333 128.028 23.1833 127.895 23.35C127.795 23.4833 127.711 23.6333 127.645 23.8C127.011 24.9667 126.378 26.2667 125.745 27.7C125.111 29.1 124.578 30.4667 124.145 31.8C123.745 33.1333 123.545 34.3 123.545 35.3C123.545 36.7667 124.011 37.5 124.945 37.5ZM141.877 37.6C141.377 37.6 140.81 37.5333 140.177 37.4C139.577 37.2333 139.044 37.0333 138.577 36.8C138.144 36.5333 137.927 36.2833 137.927 36.05C137.927 35.5167 138.427 35.25 139.427 35.25C139.994 35.25 140.66 35.1333 141.427 34.9C142.194 34.6667 142.894 34.4167 143.527 34.15C144.194 33.85 144.627 33.6333 144.827 33.5C144.694 33.3 144.377 33 143.877 32.6C143.377 32.1667 142.827 31.65 142.227 31.05C141.627 30.45 141.094 29.7833 140.627 29.05C140.194 28.2833 139.977 27.45 139.977 26.55C139.977 25.6167 140.227 24.75 140.727 23.95C141.227 23.1167 141.844 22.3667 142.577 21.7C143.344 21 144.11 20.4 144.877 19.9C145.677 19.3667 146.36 18.9333 146.927 18.6C147.16 18.4667 147.41 18.4 147.677 18.4C148.21 18.4 148.71 18.5833 149.177 18.95C149.677 19.3167 149.927 19.6667 149.927 20C149.927 20.0333 149.894 20.1167 149.827 20.25C149.56 20.55 149.26 21.0167 148.927 21.65C148.627 22.2833 148.36 22.95 148.127 23.65C147.894 24.3167 147.777 24.9333 147.777 25.5C147.777 26.1333 147.644 26.45 147.377 26.45C147.244 26.45 147.144 26.3167 147.077 26.05C147.01 25.7833 146.977 25.5333 146.977 25.3C146.977 24.6333 147.077 23.9167 147.277 23.15C147.51 22.3833 147.66 21.8333 147.727 21.5C147.327 21.5 146.777 21.7667 146.077 22.3C145.41 22.8 144.727 23.4333 144.027 24.2C143.327 24.9333 142.727 25.6833 142.227 26.45C141.76 27.1833 141.527 27.7833 141.527 28.25C141.527 28.8833 141.744 29.4667 142.177 30C142.61 30.5 143.144 30.9667 143.777 31.4C144.444 31.8333 145.06 32.3 145.627 32.8C145.96 32.6667 146.477 32.4333 147.177 32.1C147.877 31.7333 148.61 31.3667 149.377 31C150.177 30.6 150.877 30.2667 151.477 30C152.11 29.7333 152.527 29.6 152.727 29.6C152.794 29.6 152.827 29.6167 152.827 29.65C152.827 29.8833 152.577 30.1833 152.077 30.55C151.577 30.9167 150.96 31.3 150.227 31.7C149.494 32.1 148.76 32.4833 148.027 32.85C147.327 33.2167 146.777 33.5 146.377 33.7C146.477 34 146.527 34.3 146.527 34.6C146.527 35.3 146.277 35.8667 145.777 36.3C145.31 36.7333 144.71 37.0667 143.977 37.3C143.277 37.5 142.577 37.6 141.877 37.6ZM153.693 37.6C153.193 37.6 152.627 37.5333 151.993 37.4C151.393 37.2333 150.86 37.0333 150.393 36.8C149.96 36.5333 149.743 36.2833 149.743 36.05C149.743 35.5167 150.243 35.25 151.243 35.25C151.81 35.25 152.477 35.1333 153.243 34.9C154.01 34.6667 154.71 34.4167 155.343 34.15C156.01 33.85 156.443 33.6333 156.643 33.5C156.51 33.3 156.193 33 155.693 32.6C155.193 32.1667 154.643 31.65 154.043 31.05C153.443 30.45 152.91 29.7833 152.443 29.05C152.01 28.2833 151.793 27.45 151.793 26.55C151.793 25.6167 152.043 24.75 152.543 23.95C153.043 23.1167 153.66 22.3667 154.393 21.7C155.16 21 155.927 20.4 156.693 19.9C157.493 19.3667 158.177 18.9333 158.743 18.6C158.977 18.4667 159.227 18.4 159.493 18.4C160.027 18.4 160.527 18.5833 160.993 18.95C161.493 19.3167 161.743 19.6667 161.743 20C161.743 20.0333 161.71 20.1167 161.643 20.25C161.377 20.55 161.077 21.0167 160.743 21.65C160.443 22.2833 160.177 22.95 159.943 23.65C159.71 24.3167 159.593 24.9333 159.593 25.5C159.593 26.1333 159.46 26.45 159.193 26.45C159.06 26.45 158.96 26.3167 158.893 26.05C158.827 25.7833 158.793 25.5333 158.793 25.3C158.793 24.6333 158.893 23.9167 159.093 23.15C159.327 22.3833 159.477 21.8333 159.543 21.5C159.143 21.5 158.593 21.7667 157.893 22.3C157.227 22.8 156.543 23.4333 155.843 24.2C155.143 24.9333 154.543 25.6833 154.043 26.45C153.577 27.1833 153.343 27.7833 153.343 28.25C153.343 28.8833 153.56 29.4667 153.993 30C154.427 30.5 154.96 30.9667 155.593 31.4C156.26 31.8333 156.877 32.3 157.443 32.8C157.777 32.6667 158.293 32.4333 158.993 32.1C159.693 31.7333 160.427 31.3667 161.193 31C161.993 30.6 162.693 30.2667 163.293 30C163.927 29.7333 164.343 29.6 164.543 29.6C164.61 29.6 164.643 29.6167 164.643 29.65C164.643 29.8833 164.393 30.1833 163.893 30.55C163.393 30.9167 162.777 31.3 162.043 31.7C161.31 32.1 160.577 32.4833 159.843 32.85C159.143 33.2167 158.593 33.5 158.193 33.7C158.293 34 158.343 34.3 158.343 34.6C158.343 35.3 158.093 35.8667 157.593 36.3C157.127 36.7333 156.527 37.0667 155.793 37.3C155.093 37.5 154.393 37.6 153.693 37.6ZM168.975 38.55C167.775 38.55 166.891 38.1667 166.325 37.4C165.758 36.6 165.475 35.6333 165.475 34.5C165.475 33.3 165.758 31.8333 166.325 30.1C166.891 28.3667 167.491 26.7333 168.125 25.2C167.558 25.5667 166.975 25.9 166.375 26.2C165.775 26.5 165.241 26.65 164.775 26.65C164.441 26.65 164.191 26.5667 164.025 26.4C163.891 26.2333 163.825 26.05 163.825 25.85C163.825 25.6833 163.875 25.4333 163.975 25.1C164.075 24.7667 164.241 24.45 164.475 24.15C164.741 23.85 165.058 23.7 165.425 23.7C165.558 23.7 165.625 23.75 165.625 23.85C165.625 23.8833 165.608 23.9167 165.575 23.95C165.575 23.95 165.575 23.9667 165.575 24C165.541 24.0667 165.525 24.1333 165.525 24.2C165.525 24.3333 165.608 24.4 165.775 24.4C165.875 24.4 165.991 24.3833 166.125 24.35C166.291 24.3167 166.458 24.25 166.625 24.15C166.958 23.9833 167.341 23.7833 167.775 23.55C168.208 23.2833 168.691 23.0167 169.225 22.75L169.975 21.25C170.175 20.8833 170.408 20.6333 170.675 20.5C170.941 20.3333 171.191 20.25 171.425 20.25C171.791 20.25 172.108 20.3167 172.375 20.45C172.675 20.55 172.941 20.6833 173.175 20.85C173.541 20.6833 173.925 20.5333 174.325 20.4C174.758 20.2333 175.175 20.1167 175.575 20.05C176.841 19.5833 178.158 19.2167 179.525 18.95C180.891 18.65 182.241 18.5 183.575 18.5C184.308 18.5 185.058 18.6 185.825 18.8C186.591 19 186.975 19.3167 186.975 19.75C186.975 19.8833 186.841 19.95 186.575 19.95C186.041 19.95 185.425 19.8833 184.725 19.75C184.058 19.6167 183.391 19.55 182.725 19.55C181.891 19.55 181.091 19.6 180.325 19.7C179.558 19.7667 178.841 19.8833 178.175 20.05C178.708 20.2833 179.141 20.6833 179.475 21.25C179.841 21.8167 180.025 22.5333 180.025 23.4C180.025 24.3333 179.791 25.45 179.325 26.75C178.891 28.05 178.291 29.3833 177.525 30.75C176.791 32.1167 175.941 33.4 174.975 34.6C174.008 35.7667 173.008 36.7167 171.975 37.45C170.941 38.1833 169.941 38.55 168.975 38.55ZM169.525 37.5C170.225 37.5 170.941 37.1833 171.675 36.55C172.441 35.9167 173.191 35.1167 173.925 34.15C174.658 33.1833 175.308 32.1833 175.875 31.15C176.141 30.6833 176.441 30.05 176.775 29.25C177.141 28.45 177.441 27.6 177.675 26.7C177.941 25.8 178.075 24.9833 178.075 24.25C178.075 23.5833 177.925 23.0333 177.625 22.6C177.358 22.1333 176.841 21.9 176.075 21.9C175.708 21.9 175.241 22 174.675 22.2C174.108 22.4 173.508 22.6333 172.875 22.9C172.741 23.0333 172.608 23.1833 172.475 23.35C172.375 23.4833 172.291 23.6333 172.225 23.8C171.591 24.9667 170.958 26.2667 170.325 27.7C169.691 29.1 169.158 30.4667 168.725 31.8C168.325 33.1333 168.125 34.3 168.125 35.3C168.125 36.7667 168.591 37.5 169.525 37.5ZM186.557 43.75C186.29 43.75 185.857 43.5 185.257 43C184.657 42.5333 184.274 41.9833 184.107 41.35C183.874 40.5167 183.724 39.4167 183.657 38.05C183.59 36.6833 183.557 35.2 183.557 33.6C183.557 31.9 183.574 30.1667 183.607 28.4C183.64 26.6 183.657 24.95 183.657 23.45C183.657 22.7167 183.657 22.05 183.657 21.45C183.657 20.8167 183.624 20.2667 183.557 19.8C183.49 19.7333 183.29 19.6833 182.957 19.65C182.657 19.5833 182.357 19.5333 182.057 19.5C181.79 19.4333 181.657 19.4 181.657 19.4C181.657 19.3333 181.907 19.1833 182.407 18.95C182.94 18.6833 183.69 18.55 184.657 18.55C185.624 18.55 186.257 18.7333 186.557 19.1C186.857 19.4667 187.007 19.7833 187.007 20.05C187.007 20.15 187.007 20.25 187.007 20.35C187.007 20.45 186.99 20.55 186.957 20.65C186.69 21.95 186.49 23.1333 186.357 24.2C186.224 25.2333 186.124 26.3 186.057 27.4C185.99 28.4667 185.94 29.7167 185.907 31.15C185.94 31.05 186.09 30.5333 186.357 29.6C186.657 28.6333 187.14 27.1333 187.807 25.1C188.34 23.4 188.774 22.3 189.107 21.8C189.44 21.2667 189.724 20.9833 189.957 20.95C190.024 20.9833 190.207 21.05 190.507 21.15C190.807 21.25 191.107 21.4167 191.407 21.65C191.707 21.85 191.857 22.1167 191.857 22.45V22.55C191.624 23.7833 191.407 25.1833 191.207 26.75C191.04 28.3167 190.957 29.8333 190.957 31.3C190.957 32.2333 190.99 33.1 191.057 33.9C191.157 34.7 191.324 35.35 191.557 35.85C191.557 35.7167 191.657 35.2833 191.857 34.55C192.09 33.8167 192.357 32.9833 192.657 32.05C192.957 31.0833 193.24 30.1667 193.507 29.3C193.774 28.4333 193.974 27.7833 194.107 27.35C194.374 26.55 194.607 26.0167 194.807 25.75C195.04 25.4833 195.357 25.35 195.757 25.35C196.324 25.35 196.724 25.7 196.957 26.4C197.224 27.0667 197.39 27.9 197.457 28.9C197.524 29.9 197.574 30.9 197.607 31.9C197.64 32.9 197.707 33.75 197.807 34.45C197.94 35.1167 198.19 35.45 198.557 35.45C198.99 35.45 199.44 35.1333 199.907 34.5C200.374 33.8333 200.824 33.0667 201.257 32.2C201.724 31.3333 202.14 30.5833 202.507 29.95C202.874 29.2833 203.157 28.95 203.357 28.95C203.457 28.95 203.507 29.0333 203.507 29.2C203.507 29.3333 203.457 29.55 203.357 29.85C202.89 30.9833 202.39 32.1167 201.857 33.25C201.324 34.3833 200.774 35.3333 200.207 36.1C199.64 36.8667 199.04 37.25 198.407 37.25C197.607 37.25 196.974 37.0167 196.507 36.55C196.174 36.25 195.907 35.7 195.707 34.9C195.507 34.0667 195.34 33.2 195.207 32.3C195.074 31.4 194.94 30.6333 194.807 30C194.707 29.3333 194.59 29 194.457 29C194.357 29 194.207 29.3 194.007 29.9C193.84 30.4667 193.657 31.1833 193.457 32.05C193.257 32.9167 193.057 33.8 192.857 34.7C192.69 35.5667 192.54 36.3333 192.407 37C192.307 37.6667 192.257 38.0833 192.257 38.25C192.257 38.65 192.074 38.8833 191.707 38.95C191.374 39.0167 190.94 39.05 190.407 39.05C190.174 39.05 189.94 38.6833 189.707 37.95C189.474 37.1833 189.257 36.2167 189.057 35.05C188.89 33.85 188.757 32.5833 188.657 31.25C188.557 29.9167 188.507 28.6833 188.507 27.55C188.507 27.1833 188.507 26.85 188.507 26.55C188.507 26.2167 188.524 25.9167 188.557 25.65C188.024 27.1833 187.474 29.05 186.907 31.25C186.34 33.4167 186.057 35.7667 186.057 38.3C186.057 39.3333 186.107 40.3 186.207 41.2C186.307 42.1 186.474 42.8 186.707 43.3C186.74 43.3667 186.757 43.45 186.757 43.55C186.757 43.6833 186.69 43.75 186.557 43.75Z" fill="#FF7CDA"/>
</svg>
